<svg width="200" height="28" viewBox="0 0 200 28" fill="none" xmlns="http://www.w3.org/2000/svg"><rect width="199.907" height="27.834" rx="2.474" fill="#000"/><path d="M22.907 17.993a3.984 3.984 0 01-1.948-.49 3.774 3.774 0 01-1.405-1.382c-.34-.595-.511-1.263-.511-2.003 0-.74.17-1.404.511-1.992a3.693 3.693 0 011.405-1.372 3.916 3.916 0 011.948-.5c.711 0 1.36.166 1.949.5a3.594 3.594 0 011.404 1.372c.341.588.512 1.252.512 1.992s-.171 1.408-.512 2.003a3.67 3.67 0 01-1.404 1.382 3.944 3.944 0 01-1.949.49zm0-1.077c.5 0 .947-.113 1.339-.338.392-.232.697-.559.914-.98.225-.428.338-.921.338-1.48 0-.559-.113-1.049-.338-1.47a2.314 2.314 0 00-.914-.969 2.64 2.64 0 00-1.339-.337c-.5 0-.947.112-1.339.337-.392.225-.7.548-.925.97-.218.42-.327.91-.327 1.469s.11 1.052.327 1.48c.225.421.533.748.925.98a2.64 2.64 0 001.34.338zm8.743 1.001l-1.741-3.026h-.947v3.026H27.72v-7.566h2.612c.58 0 1.07.102 1.47.305.406.203.707.476.903.817.203.34.305.722.305 1.143 0 .493-.145.943-.435 1.35-.283.399-.722.67-1.317.816l1.872 3.135h-1.48zM28.962 13.9h1.371c.465 0 .813-.116 1.045-.348.24-.232.36-.544.36-.936s-.117-.697-.349-.915c-.232-.225-.584-.337-1.056-.337h-1.371V13.9zm7.836-3.549c.805 0 1.51.156 2.111.468.61.305 1.078.748 1.405 1.329.334.573.5 1.244.5 2.013 0 .77-.166 1.437-.5 2.003a3.264 3.264 0 01-1.404 1.307c-.603.297-1.307.446-2.112.446h-2.471v-7.566h2.47zm0 6.554c.885 0 1.563-.24 2.035-.719.472-.479.708-1.154.708-2.025 0-.878-.236-1.564-.708-2.057-.471-.493-1.15-.74-2.035-.74h-1.23v5.54h1.23zm6.215-5.552v2.22h2.613v1.013h-2.613v2.319h2.94v1.012h-4.18V10.34h4.18v1.013h-2.94zm8.126 6.564l-1.742-3.026h-.947v3.026h-1.241v-7.566h2.612c.581 0 1.07.102 1.47.305.406.203.708.476.904.817.203.34.304.722.304 1.143 0 .493-.145.943-.435 1.35-.283.399-.722.67-1.317.816l1.872 3.135h-1.48zm-2.69-4.017h1.372c.465 0 .813-.116 1.046-.348.239-.232.359-.544.359-.936s-.116-.697-.349-.915c-.232-.225-.584-.337-1.056-.337H48.45V13.9zm12.374-3.549v1.013H57.61v2.231h2.504v1.013h-2.504v3.309h-1.24v-7.566h4.452zm4.328 7.642a3.984 3.984 0 01-1.948-.49 3.773 3.773 0 01-1.404-1.382c-.341-.595-.512-1.263-.512-2.003 0-.74.17-1.404.512-1.992a3.692 3.692 0 011.404-1.372 3.916 3.916 0 011.948-.5c.712 0 1.361.166 1.949.5a3.594 3.594 0 011.404 1.372c.341.588.512 1.252.512 1.992s-.17 1.408-.512 2.003a3.67 3.67 0 01-1.404 1.382 3.944 3.944 0 01-1.949.49zm0-1.077c.501 0 .948-.113 1.34-.338.391-.232.696-.559.914-.98.225-.428.337-.921.337-1.48 0-.559-.112-1.049-.337-1.47a2.314 2.314 0 00-.915-.969 2.64 2.64 0 00-1.339-.337c-.5 0-.947.112-1.338.337-.392.225-.7.548-.926.97-.218.42-.326.91-.326 1.469s.108 1.052.326 1.48c.225.421.534.748.925.98a2.64 2.64 0 001.34.338zm8.744 1.001l-1.742-3.026h-.947v3.026h-1.241v-7.566h2.612c.581 0 1.071.102 1.47.305.407.203.708.476.904.817.203.34.305.722.305 1.143 0 .493-.146.943-.436 1.35-.283.399-.722.67-1.317.816l1.872 3.135h-1.48zm-2.69-4.017h1.373c.464 0 .812-.116 1.045-.348.24-.232.359-.544.359-.936s-.116-.697-.349-.915c-.232-.225-.584-.337-1.055-.337h-1.372V13.9zm13.212-1.295c0 .384-.09.747-.272 1.088-.182.341-.472.62-.871.838-.4.211-.91.316-1.535.316h-1.371v3.07h-1.242v-7.566h2.613c.58 0 1.07.102 1.47.305.406.196.707.465.903.806.203.34.305.722.305 1.143zm-2.678 1.23c.472 0 .824-.105 1.056-.316.232-.218.348-.522.348-.914 0-.828-.468-1.241-1.404-1.241h-1.371v2.47h1.371zm4.83-3.484v7.566h-1.24v-7.566h1.24zm.944 3.767c0-.74.17-1.404.512-1.992a3.692 3.692 0 011.404-1.372 3.916 3.916 0 011.948-.5c.806 0 1.52.199 2.145.598.631.392 1.088.95 1.371 1.676h-1.49a1.999 1.999 0 00-.817-.892 2.422 2.422 0 00-1.209-.294c-.5 0-.947.112-1.339.337-.391.225-.7.548-.925.97-.218.42-.326.91-.326 1.469s.108 1.048.326 1.47c.225.42.534.747.925.98a2.64 2.64 0 001.34.337c.457 0 .86-.098 1.208-.294a2 2 0 00.816-.893h1.492c-.284.726-.74 1.285-1.372 1.677-.624.391-1.339.587-2.145.587-.71 0-1.36-.163-1.948-.49a3.773 3.773 0 01-1.404-1.382c-.342-.588-.512-1.252-.512-1.992zm12.73 3.799l-2.928-3.386v3.386h-1.241v-7.566h1.241v3.451l2.939-3.45h1.557l-3.288 3.788 3.342 3.777h-1.622zm3.678-7.566v4.823c0 .573.148 1.005.446 1.295.305.29.726.436 1.263.436.544 0 .965-.146 1.262-.436.305-.29.458-.722.458-1.295V10.35h1.241v4.801c0 .617-.135 1.14-.403 1.568a2.503 2.503 0 01-1.078.957c-.45.211-.947.316-1.491.316a3.48 3.48 0 01-1.492-.316 2.446 2.446 0 01-1.055-.957c-.262-.429-.392-.951-.392-1.568v-4.8h1.241zm11.304 2.254c0 .384-.091.747-.272 1.088-.182.341-.472.62-.871.838-.399.211-.911.316-1.535.316h-1.372v3.07h-1.241v-7.566h2.613c.58 0 1.07.102 1.47.305.406.196.707.465.903.806.203.34.305.722.305 1.143zm-2.678 1.23c.472 0 .824-.105 1.056-.316.232-.218.348-.522.348-.914 0-.828-.468-1.241-1.404-1.241h-1.372v2.47h1.372zm9.596 4.158a3.985 3.985 0 01-1.949-.49 3.769 3.769 0 01-1.404-1.382 3.956 3.956 0 01-.512-2.003c0-.74.171-1.404.512-1.992a3.688 3.688 0 011.404-1.372 3.917 3.917 0 011.949-.5c.711 0 1.36.166 1.948.5a3.602 3.602 0 011.405 1.372c.341.588.511 1.252.511 1.992s-.17 1.408-.511 2.003a3.68 3.68 0 01-1.405 1.382 3.943 3.943 0 01-1.948.49zm0-1.077c.5 0 .947-.113 1.339-.338.392-.232.696-.559.914-.98.225-.428.338-.921.338-1.48 0-.559-.113-1.049-.338-1.47a2.314 2.314 0 00-.914-.969 2.643 2.643 0 00-1.339-.337 2.64 2.64 0 00-1.339.337 2.385 2.385 0 00-.926.97c-.217.42-.326.91-.326 1.469s.109 1.052.326 1.48c.225.421.534.748.926.98a2.64 2.64 0 001.339.338zm8.743 1.001l-1.742-3.026h-.947v3.026h-1.241v-7.566h2.613c.58 0 1.07.102 1.469.305.407.203.708.476.904.817.203.34.305.722.305 1.143 0 .493-.145.943-.436 1.35-.283.399-.722.67-1.317.816l1.872 3.135h-1.48zm-2.689-4.017h1.372c.464 0 .813-.116 1.045-.348.239-.232.359-.544.359-.936s-.116-.697-.348-.915c-.232-.225-.584-.337-1.056-.337h-1.372V13.9zm10.392-3.549c.805 0 1.509.156 2.112.468a3.233 3.233 0 011.404 1.329c.334.573.501 1.244.501 2.013 0 .77-.167 1.437-.501 2.003a3.27 3.27 0 01-1.404 1.307c-.603.297-1.307.446-2.112.446h-2.471v-7.566h2.471zm0 6.554c.885 0 1.564-.24 2.036-.719.471-.479.707-1.154.707-2.025 0-.878-.236-1.564-.707-2.057-.472-.493-1.151-.74-2.036-.74h-1.23v5.54h1.23zm6.216-5.552v2.22h2.612v1.013h-2.612v2.319h2.939v1.012h-4.18V10.34h4.18v1.013h-2.939zm5.436 5.563h2.558v1.001H149v-7.566h1.241v6.565zm4.565-6.565v7.566h-1.241v-7.566h1.241zm7.878 0l-2.842 7.566h-1.436l-2.853-7.566h1.329l2.242 6.292 2.253-6.292h1.307zm2.006 1.002v2.22h2.613v1.013h-2.613v2.319h2.94v1.012h-4.181V10.34h4.181v1.013h-2.94zm8.126 6.564l-1.742-3.026h-.947v3.026h-1.241v-7.566h2.613c.58 0 1.07.102 1.469.305.406.203.708.476.904.817.203.34.304.722.304 1.143 0 .493-.145.943-.435 1.35-.283.399-.722.67-1.317.816l1.872 3.135h-1.48zm-2.689-4.017h1.372c.464 0 .812-.116 1.045-.348.239-.232.359-.544.359-.936s-.116-.697-.349-.915c-.232-.225-.584-.337-1.055-.337h-1.372V13.9zm10.971-3.549l-2.504 4.823v2.743h-1.241v-2.743l-2.514-4.823h1.382l1.753 3.712 1.752-3.712h1.372z" fill="#fff"/></svg>