<svg width="200" height="28" viewBox="0 0 200 28" fill="none" xmlns="http://www.w3.org/2000/svg"><rect width="199.907" height="27.834" rx="2.474" fill="#000"/><path d="M22.907 17.993a3.984 3.984 0 01-1.948-.49 3.773 3.773 0 01-1.404-1.382c-.342-.595-.512-1.263-.512-2.003 0-.74.17-1.404.512-1.992a3.692 3.692 0 011.404-1.372 3.916 3.916 0 011.948-.5c.712 0 1.361.166 1.949.5a3.594 3.594 0 011.404 1.372c.341.588.512 1.252.512 1.992s-.17 1.408-.512 2.003a3.67 3.67 0 01-1.404 1.382 3.944 3.944 0 01-1.949.49zm0-1.077c.501 0 .947-.113 1.34-.338.391-.232.696-.559.914-.98.225-.428.337-.921.337-1.48 0-.559-.112-1.049-.337-1.47a2.314 2.314 0 00-.915-.969 2.64 2.64 0 00-1.339-.337c-.5 0-.947.112-1.339.337-.392.225-.7.548-.925.97-.218.42-.326.91-.326 1.469s.108 1.052.326 1.48c.225.421.534.748.925.98a2.64 2.64 0 001.34.338zm8.744 1.001l-1.742-3.026h-.947v3.026H27.72v-7.566h2.612c.581 0 1.07.102 1.47.305.406.203.708.476.903.817.204.34.305.722.305 1.143 0 .493-.145.943-.435 1.35-.283.399-.722.67-1.317.816l1.872 3.135h-1.48zM28.96 13.9h1.372c.465 0 .813-.116 1.046-.348.239-.232.359-.544.359-.936s-.116-.697-.349-.915c-.232-.225-.584-.337-1.056-.337h-1.371V13.9zm7.837-3.549c.805 0 1.51.156 2.112.468.61.305 1.077.748 1.404 1.329.334.573.5 1.244.5 2.013 0 .77-.166 1.437-.5 2.003a3.265 3.265 0 01-1.404 1.307c-.603.297-1.307.446-2.112.446h-2.471v-7.566h2.47zm0 6.554c.885 0 1.564-.24 2.035-.719.472-.479.708-1.154.708-2.025 0-.878-.236-1.564-.707-2.057-.472-.493-1.15-.74-2.036-.74h-1.23v5.54h1.23zm6.215-5.552v2.22h2.613v1.013h-2.612v2.319h2.939v1.012h-4.18V10.34h4.18v1.013h-2.94zm8.126 6.564l-1.742-3.026h-.947v3.026h-1.24v-7.566h2.612c.58 0 1.07.102 1.47.305.406.203.707.476.903.817.203.34.305.722.305 1.143 0 .493-.146.943-.436 1.35-.283.399-.722.67-1.317.816l1.872 3.135h-1.48zM48.45 13.9h1.372c.464 0 .813-.116 1.045-.348.24-.232.359-.544.359-.936s-.116-.697-.348-.915c-.233-.225-.585-.337-1.056-.337H48.45V13.9zm12.373-3.549v1.013h-3.211v2.231h2.503v1.013h-2.503v3.309H56.37v-7.566h4.452zm4.329 7.642a3.984 3.984 0 01-1.949-.49 3.774 3.774 0 01-1.404-1.382c-.341-.595-.512-1.263-.512-2.003 0-.74.17-1.404.512-1.992a3.693 3.693 0 011.404-1.372 3.916 3.916 0 011.949-.5c.71 0 1.36.166 1.948.5a3.594 3.594 0 011.404 1.372c.342.588.512 1.252.512 1.992s-.17 1.408-.512 2.003a3.67 3.67 0 01-1.404 1.382 3.944 3.944 0 01-1.948.49zm0-1.077c.5 0 .947-.113 1.339-.338.391-.232.696-.559.914-.98.225-.428.338-.921.338-1.48 0-.559-.113-1.049-.338-1.47a2.314 2.314 0 00-.914-.969 2.64 2.64 0 00-1.34-.337c-.5 0-.946.112-1.338.337-.392.225-.7.548-.926.97-.217.42-.326.91-.326 1.469s.109 1.052.326 1.48c.225.421.534.748.926.98a2.64 2.64 0 001.339.338zm8.743 1.001l-1.742-3.026h-.947v3.026h-1.24v-7.566h2.612c.58 0 1.07.102 1.47.305.406.203.707.476.903.817.203.34.305.722.305 1.143 0 .493-.145.943-.436 1.35-.283.399-.722.67-1.317.816l1.872 3.135h-1.48zM71.206 13.9h1.372c.464 0 .813-.116 1.045-.348.24-.232.36-.544.36-.936s-.117-.697-.35-.915c-.231-.225-.584-.337-1.055-.337h-1.372V13.9zm13.211-1.295c0 .384-.09.747-.272 1.088-.181.341-.472.62-.87.838-.4.211-.912.316-1.536.316h-1.371v3.07h-1.241v-7.566h2.612c.58 0 1.07.102 1.47.305.406.196.707.465.903.806.204.34.305.722.305 1.143zm-2.678 1.23c.472 0 .824-.105 1.056-.316.233-.218.349-.522.349-.914 0-.828-.469-1.241-1.405-1.241h-1.371v2.47h1.371zm4.83-3.484v7.566h-1.24v-7.566h1.24zm.944 3.767c0-.74.17-1.404.512-1.992a3.693 3.693 0 011.404-1.372 3.916 3.916 0 011.949-.5c.805 0 1.52.199 2.144.598.631.392 1.089.95 1.372 1.676h-1.492a1.999 1.999 0 00-.816-.892 2.422 2.422 0 00-1.208-.294c-.501 0-.947.112-1.34.337-.391.225-.7.548-.925.97-.217.42-.326.91-.326 1.469s.109 1.048.326 1.47c.225.42.534.747.926.98a2.64 2.64 0 001.339.337c.457 0 .86-.098 1.208-.294a2 2 0 00.816-.893h1.492c-.283.726-.74 1.285-1.372 1.677-.624.391-1.339.587-2.144.587-.712 0-1.361-.163-1.949-.49a3.773 3.773 0 01-1.404-1.382c-.341-.588-.512-1.252-.512-1.992zm12.731 3.799l-2.929-3.386v3.386h-1.24v-7.566h1.24v3.451l2.939-3.45h1.557l-3.288 3.788 3.342 3.777h-1.621zm3.677-7.566v4.823c0 .573.149 1.005.446 1.295.305.29.726.436 1.263.436.544 0 .965-.146 1.263-.436.305-.29.457-.722.457-1.295V10.35h1.241v4.801c0 .617-.134 1.14-.403 1.568a2.497 2.497 0 01-1.078.957c-.45.211-.947.316-1.491.316a3.475 3.475 0 01-1.491-.316 2.443 2.443 0 01-1.056-.957c-.261-.429-.392-.951-.392-1.568v-4.8h1.241zm11.304 2.254c0 .384-.091.747-.272 1.088-.182.341-.472.62-.871.838-.399.211-.911.316-1.535.316h-1.371v3.07h-1.241v-7.566h2.612c.581 0 1.071.102 1.47.305.406.196.707.465.903.806.203.34.305.722.305 1.143zm-2.678 1.23c.472 0 .824-.105 1.056-.316.232-.218.348-.522.348-.914 0-.828-.468-1.241-1.404-1.241h-1.371v2.47h1.371zm9.596 4.158a3.985 3.985 0 01-1.949-.49 3.776 3.776 0 01-1.404-1.382 3.956 3.956 0 01-.512-2.003c0-.74.171-1.404.512-1.992a3.695 3.695 0 011.404-1.372 3.917 3.917 0 011.949-.5 3.88 3.88 0 011.949.5 3.593 3.593 0 011.404 1.372c.341.588.511 1.252.511 1.992s-.17 1.408-.511 2.003a3.67 3.67 0 01-1.404 1.382 3.947 3.947 0 01-1.949.49zm0-1.077a2.64 2.64 0 001.339-.338 2.38 2.38 0 00.914-.98c.225-.428.338-.921.338-1.48 0-.559-.113-1.049-.338-1.47a2.308 2.308 0 00-.914-.969 2.64 2.64 0 00-1.339-.337 2.64 2.64 0 00-1.339.337c-.392.225-.7.548-.925.97-.218.42-.327.91-.327 1.469s.109 1.052.327 1.48c.225.421.533.748.925.98a2.64 2.64 0 001.339.338zm8.743 1.001l-1.741-3.026h-.948v3.026h-1.241v-7.566h2.613c.581 0 1.071.102 1.47.305.406.203.707.476.903.817.203.34.305.722.305 1.143 0 .493-.145.943-.435 1.35-.283.399-.723.67-1.318.816l1.873 3.135h-1.481zm-2.689-4.017h1.372c.465 0 .813-.116 1.045-.348.24-.232.359-.544.359-.936s-.116-.697-.348-.915c-.232-.225-.584-.337-1.056-.337h-1.372V13.9zm10.392-3.549c.806 0 1.51.156 2.112.468.61.305 1.078.748 1.404 1.329.334.573.501 1.244.501 2.013 0 .77-.167 1.437-.501 2.003a3.258 3.258 0 01-1.404 1.307c-.602.297-1.306.446-2.112.446h-2.471v-7.566h2.471zm0 6.554c.885 0 1.564-.24 2.036-.719.471-.479.707-1.154.707-2.025 0-.878-.236-1.564-.707-2.057-.472-.493-1.151-.74-2.036-.74h-1.23v5.54h1.23zm6.216-5.552v2.22h2.612v1.013h-2.612v2.319h2.939v1.012h-4.18V10.34h4.18v1.013h-2.939zm5.436 5.563h2.558v1.001H149v-7.566h1.241v6.565zm4.565-6.565v7.566h-1.241v-7.566h1.241zm7.878 0l-2.841 7.566h-1.437l-2.852-7.566h1.328l2.242 6.292 2.254-6.292h1.306zm2.007 1.002v2.22h2.612v1.013h-2.612v2.319h2.939v1.012h-4.18V10.34h4.18v1.013h-2.939zm8.125 6.564l-1.742-3.026h-.947v3.026h-1.241v-7.566h2.613c.58 0 1.07.102 1.469.305.407.203.708.476.904.817.203.34.305.722.305 1.143 0 .493-.145.943-.436 1.35-.283.399-.722.67-1.317.816l1.872 3.135h-1.48zm-2.689-4.017h1.372c.464 0 .813-.116 1.045-.348.239-.232.359-.544.359-.936s-.116-.697-.348-.915c-.233-.225-.585-.337-1.056-.337h-1.372V13.9zm10.971-3.549l-2.503 4.823v2.743h-1.241v-2.743l-2.515-4.823h1.382l1.753 3.712 1.753-3.712h1.371z" fill="#fff"/></svg>